HIERARCHY
ROOT hip
{
	OFFSET 0.000000 0.000000 0.000000 
	CHANNELS 6 Xposition Yposition Zposition Xrotation Zrotation Yrotation
	JOINT abdomen
	{
		OFFSET 0.000000 3.402643 0.000000 
		CHANNELS 3 Xrotation Zrotation Yrotation
		JOINT chest
		{
			OFFSET 0.000000 8.438565 -0.680529 
			CHANNELS 3 Xrotation Zrotation Yrotation
			JOINT neck
			{
				OFFSET 0.000000 10.207942 -0.272212 
				CHANNELS 3 Xrotation Zrotation Yrotation
				JOINT head
				{
					OFFSET 0.000000 3.130431 0.000000 
					CHANNELS 3 Xrotation Zrotation Yrotation
					End Site
					{
						OFFSET 0.000000 3.130435 0.000000 
					}
				}
			}
			JOINT lCollar
			{
				OFFSET 3.470700 6.669187 -0.816635 
				CHANNELS 3 Yrotation Zrotation Xrotation
				JOINT lShldr
				{
					OFFSET 3.198488 0.000000 0.000000 
					CHANNELS 3 Zrotation Yrotation Xrotation
					JOINT lForeArm
					{
						OFFSET 10.139888 0.000000 0.000000 
						CHANNELS 3 Yrotation Zrotation Xrotation
						JOINT lHand
						{
							OFFSET 8.370511 0.000000 0.000000 
							CHANNELS 3 Zrotation Yrotation Xrotation
							End Site
							{
								OFFSET 4.083176 0.000000 0.000000 
							}
						}
					}
				}
			}
			JOINT rCollar
			{
				OFFSET -3.470700 6.669187 -0.816635 
				CHANNELS 3 Yrotation Zrotation Xrotation
				JOINT rShldr
				{
					OFFSET -3.198488 0.000000 0.000000 
					CHANNELS 3 Zrotation Yrotation Xrotation
					JOINT rForeArm
					{
						OFFSET -10.139888 0.000000 0.000000 
						CHANNELS 3 Yrotation Zrotation Xrotation
						JOINT rHand
						{
							OFFSET -8.370511 0.000000 0.000000 
							CHANNELS 3 Zrotation Yrotation Xrotation
							End Site
							{
								OFFSET -4.083176 0.000000 0.000000 
							}
						}
					}
				}
			}
		}
	}
	JOINT lThigh
	{
		OFFSET 5.308129 -1.633274 1.361059 
		CHANNELS 3 Xrotation Zrotation Yrotation
		JOINT lShin
		{
			OFFSET -2.041588 -20.007561 0.000000 
			CHANNELS 3 Xrotation Zrotation Yrotation
			JOINT lFoot
			{
				OFFSET 0.000000 -19.190928 -1.224953 
				CHANNELS 3 Xrotation Yrotation Zrotation
				End Site
				{
					OFFSET 0.000000 -2.449906 4.627600 
				}
			}
		}
	}
	JOINT rThigh
	{
		OFFSET -5.308129 -1.633274 1.361059 
		CHANNELS 3 Xrotation Zrotation Yrotation
		JOINT rShin
		{
			OFFSET 2.041588 -20.007561 0.000000 
			CHANNELS 3 Xrotation Zrotation Yrotation
			JOINT rFoot
			{
				OFFSET 0.000000 -19.190928 -1.224953 
				CHANNELS 3 Xrotation Yrotation Zrotation
				End Site
				{
					OFFSET 0.000000 -2.449906 4.627600 
				}
			}
		}
	}
}
MOTION
Frames: 6
Frame Time: 0.033333
-23.182793 -5.913821 -40.972378 -7.392578 0.693359 158.281372 0.000000 0.000000 0.000000 38.339844 15.380858 -9.736329 -8.447267 0.000000 0.000000 -17.109377 9.853516 -53.359375 -2.812500 -0.087891 -0.009766 -49.277348 -38.515629 -17.050779 -88.212891 -44.208984 -16.028345 39.550781 -13.759766 -8.710938 2.802734 0.078125 -0.009779 43.398434 27.529297 -6.074217 78.359375 33.115238 -2.832031 -58.994141 34.697266 -3.324521 -10.556094 39.942551 11.106539 61.213024 -1.509262 -4.972416 -28.675453 5.911062 -20.389069 -50.285847 -41.226616 10.384562 46.122425 4.208829 11.172186 -17.364632 22.131914 34.695633 
-23.529957 -6.036188 -41.114677 -8.271484 0.693359 156.337891 0.000000 0.000000 0.000000 35.654293 19.199217 -18.535154 -8.447267 0.000000 0.000000 -15.556642 10.615235 -49.501957 -2.812500 -0.087891 -0.009766 -50.595703 -45.927734 -7.848814 -89.873047 -44.716797 -16.894533 41.035156 -12.578125 -6.923827 2.802734 0.078125 -0.009779 43.886719 17.001951 -9.589845 80.927734 33.720707 -4.233937 -67.490234 37.353516 -8.890557 -9.697903 40.019375 12.676607 62.473923 -1.384569 -4.445000 -28.788694 5.855056 -19.635744 -51.699955 -40.005241 10.643710 45.413971 4.378089 11.197991 -18.016899 22.725079 35.223129 
-23.760410 -6.192660 -41.100399 -9.150390 0.517578 155.127075 0.000000 0.000000 0.000000 32.734375 21.376953 -26.494141 -8.447267 0.000000 0.000000 -14.003907 11.396484 -46.308594 -2.812500 -0.087891 -0.009766 -54.091797 -51.005859 2.297099 -90.371094 -44.541016 -17.288073 42.167965 -11.425782 -6.367188 2.802734 0.078125 -0.009779 46.005859 7.753907 -12.060548 83.222656 34.121094 -5.718369 -75.439453 39.023438 -13.529007 -9.521493 40.109722 14.160626 62.821411 -1.366225 -4.302927 -28.099998 5.882881 -19.387373 -53.116436 -39.663776 10.449431 45.223175 4.384758 11.000460 -18.936981 23.442062 36.160191 
-23.899776 -6.343466 -40.923992 -10.029297 0.341797 154.794937 0.000000 0.000000 0.000000 30.107422 22.568359 -32.408360 -8.447267 0.000000 0.000000 -12.783204 11.816406 -43.906250 -2.812500 -0.087891 -0.009766 -58.896481 -53.886715 11.662037 -91.240234 -44.863281 -17.978516 42.841797 -11.015625 -5.841708 2.802734 0.078125 -0.009779 48.925777 0.478516 -13.212910 85.449219 34.189453 -7.089844 -81.386719 40.341797 -16.028833 -10.224940 40.102356 14.291317 63.003639 -1.384970 -4.142771 -28.484608 5.917738 -19.150026 -54.251785 -39.528240 9.297128 45.061157 3.906781 11.331933 -18.650839 24.102285 36.228230 
-23.914055 -6.445892 -40.605381 -10.380859 0.000000 155.390625 0.000000 0.000000 0.000000 29.589844 22.832031 -34.634884 -8.447267 0.000000 0.000000 -12.919922 11.318358 -41.111362 -2.812500 -0.087891 -0.009766 -62.519527 -55.849609 16.993874 -91.650391 -45.556641 -18.254745 41.835941 -11.630860 -5.353531 2.802734 0.078125 -0.009779 52.109375 -4.326172 -14.218751 86.992188 33.750000 -8.007812 -85.283203 41.835941 -17.773438 -11.611444 40.328487 13.804156 62.995304 -1.521653 -4.405663 -28.538401 6.013840 -18.679913 -54.474670 -40.074028 8.050006 44.926155 3.545220 11.170908 -18.893127 24.884193 36.353977 
-23.751915 -6.528375 -40.067535 -10.205078 0.166016 157.109421 0.000000 0.000000 0.000000 30.810547 23.056641 -34.091793 -8.447267 0.000000 0.000000 -13.701173 9.785157 -37.509762 -2.812500 -0.087891 -0.009766 -65.566406 -56.533203 19.833986 -90.615234 -45.595707 -17.659039 41.191406 -12.392579 -4.814453 2.802734 0.078125 -0.009779 55.039066 -6.494141 -15.206183 87.050781 33.076172 -8.501424 -87.333984 43.466797 -18.567499 -12.997344 40.245934 12.110918 62.486759 -2.017027 -3.953457 -28.208483 5.122319 -18.461191 -53.610218 -41.131004 6.858880 45.266937 3.691731 11.061471 -18.401203 24.484877 35.734779 
